<svg data-v-0dd9719b="" version="1.0" xmlns="http://www.w3.org/2000/svg" xmlns:xlink="http://www.w3.org/1999/xlink" width="100%" height="100%" viewBox="0 0 340.000000 250.000000" preserveAspectRatio="xMidYMid meet" color-interpolation-filters="sRGB" style="margin: auto;"> <rect data-v-0dd9719b="" x="0" y="0" width="100%" height="100%" fill="#ffffff" fill-opacity="1" class="background"></rect> <rect data-v-0dd9719b="" x="0" y="0" width="100%" height="100%" fill="url(#watermark)" fill-opacity="1" class="watermarklayer"></rect> <g data-v-0dd9719b="" fill="#09f524" class="icon-text-wrapper icon-svg-group iconsvg" transform="translate(48.6199951171875,97.34640693664551)"><g class="iconsvg-imagesvg" transform="translate(0,0)" mask="url(#517ed86e-92ce-4a45-b784-f124e50e0a5c)"><g><rect fill="#09f524" fill-opacity="0" stroke-width="2" x="0" y="0" width="60" height="55.307185325160155" class="image-rect"></rect> <svg filter="url(#colors5354994280)" x="0" y="0" width="60" height="55.307185325160155" filtersec="colorsf3199311244" class="image-svg-svg primary" style="overflow: visible;"><svg xmlns="http://www.w3.org/2000/svg" xmlns:xlink="http://www.w3.org/1999/xlink" version="1.1" x="0px" y="0px" viewBox="1.399999976158142 5.899999618530273 107.4000015258789 99" xml:space="preserve"><path d="M96.1,20.4c-0.6-7.2-6-13.1-13-14.3c-0.8-0.1-1.7-0.2-2.6-0.2S78.7,6,77.9,6.1c-2.1,0.4-4,1.1-5.7,2.2s-3.1,2.4-4.3,4  l-0.1,0.1C67.7,12.5,46.5,42,31.7,62.6l-17-29.5L5.6,66L23,74.6c-0.2,0.3-0.4,0.6-0.6,0.9L3.3,71.7L1.4,82.1l34.5-0.2l0,0h14.8  c9.7-8.9,35.2-32.2,45.4-41v-8.1l12.7-8.9C99.2,24.1,96.1,20.4,96.1,20.4z M82.7,25.2c-2.8,0-5.1-2.3-5.1-5.1s2.3-5.1,5.1-5.1  c2.8,0,5.1,2.3,5.1,5.1S85.5,25.2,82.7,25.2z M97.1,44.9v0.2v0.1C97,63.5,83.8,78.7,66.5,81.8l-3.1,23.1h-4.8l-3.1-22.4l0,0  C65.1,73.6,86.9,53.7,97.1,44.9z"></path></svg></svg> <defs><filter id="colors5354994280"><feColorMatrix type="matrix" values="0 0 0 0 0.03515625  0 0 0 0 0.95703125  0 0 0 0 0.140625  0 0 0 1 0" class="icon-fecolormatrix"></feColorMatrix></filter> <filter id="colorsf3199311244"><feColorMatrix type="matrix" values="0 0 0 0 0.99609375  0 0 0 0 0.99609375  0 0 0 0 0.99609375  0 0 0 1 0" class="icon-fecolormatrix"></feColorMatrix></filter> <filter id="colorsb6288474165"><feColorMatrix type="matrix" values="0 0 0 0 0  0 0 0 0 0  0 0 0 0 0  0 0 0 1 0" class="icon-fecolormatrix"></feColorMatrix></filter></defs></g><rect v-gra="id" width="72" height="67.30718612670898" transform="translate(-6, -6)" style="pointer-events:none;" fill="url(#SNI_BwnN4zpLJ1C-JcCMu)"></rect></g> <g transform="translate(67,0.5023441314697266)"><g data-gra="path-name" fill-rule="" class="tp-name iconsvg-namesvg" transform="translate(0,0)" fill="url(#042a571b-692d-467b-b902-81190735d0b6)"><g transform="scale(1)"><g><path d="M5.03 2.89L5.03 2.89Q4.25 2.89 3.24 2.23L3.24 2.23Q2.01 1.4 2.01 0.61L2.01 0.61Q2.01 0.39 2.14 0.13L2.14 0.13Q5.08-6.83 5.08-20.18L5.08-20.18 5.08-30.02Q5.08-30.85 5.95-31.73 6.83-32.6 8.71-32.6L8.71-32.6 20.74-32.6 20.74-34.62Q20.74-36.46 23.63-36.46L23.63-36.46Q26.52-36.46 26.52-34.62L26.52-34.62 26.52-32.6 39.65-32.6Q42.23-32.6 42.23-31.07L42.23-31.07Q42.23-29.54 39.65-29.54L39.65-29.54 10.77-29.54Q10.5-29.54 10.5-28.23L10.5-28.23 10.5-20.18Q10.5-6.39 7.22 1.18L7.22 1.18Q6.35 2.89 5.03 2.89ZM35.4 1.62L35.4 1.62 16.11 1.62Q14.22 1.62 13.35 0.74 12.47-0.13 12.47-0.96L12.47-0.96 12.47-6Q12.47-6.83 13.35-7.7 14.22-8.58 16.11-8.58L16.11-8.58 35.4-8.58Q37.29-8.58 38.16-7.7 39.04-6.83 39.04-6L39.04-6 39.04-0.96Q39.04-0.13 38.16 0.74 37.29 1.62 35.4 1.62ZM18.29-0.96L33.04-0.96Q33.3-0.96 33.3-2.28L33.3-2.28 33.3-4.68Q33.3-6 33.04-6L33.04-6 18.29-6Q18.03-6 18.03-4.68L18.03-4.68 18.03-2.28Q18.03-0.96 18.29-0.96L18.29-0.96ZM35.14-11.64L35.14-11.64 14.31-11.64Q12.08-11.64 12.08-12.87L12.08-12.87Q12.08-14.05 14.31-14.05L14.31-14.05 22.41-14.05 22.41-17.77 11.6-17.77Q9.28-17.77 9.28-19.04L9.28-19.04Q9.28-20.31 11.6-20.31L11.6-20.31 22.41-20.31 22.41-23.63 14.66-23.63Q12.39-23.63 12.39-24.86L12.39-24.86Q12.39-26.08 14.66-26.08L14.66-26.08 22.41-26.08 22.41-27.13Q22.41-28.8 25.12-28.8L25.12-28.8Q27.83-28.8 27.83-27.13L27.83-27.13 27.83-26.08 35.1-26.08Q36.98-26.08 37.86-25.21 38.73-24.33 38.73-23.5L38.73-23.5 38.73-20.48 40.35-20.48Q42.89-20.48 42.89-18.99L42.89-18.99Q42.89-17.51 40.35-17.51L40.35-17.51 38.73-17.51 38.73-14.18Q38.73-13.35 37.88-12.49 37.02-11.64 35.14-11.64ZM27.83-14.05L33-14.05Q33.26-14.05 33.26-15.36L33.26-15.36 33.26-17.77 27.83-17.77 27.83-14.05ZM27.83-20.31L33.26-20.31 33.26-22.32Q33.26-23.63 33-23.63L33-23.63 27.83-23.63 27.83-20.31ZM82.14-0.61L82.14-0.61 53.39-0.61Q51.51-0.61 50.63-1.49 49.76-2.36 49.76-3.19L49.76-3.19 49.76-24.25Q49.76-26.04 52.6-26.04L52.6-26.04Q55.45-26.04 55.45-24.25L55.45-24.25 55.45-5.56Q55.45-4.25 55.71-4.25L55.71-4.25 64.64-4.25 64.64-33.61Q64.64-35.45 67.57-35.45L67.57-35.45Q70.46-35.45 70.46-33.61L70.46-33.61 70.46-4.25 79.78-4.25Q80.04-4.25 80.04-5.56L80.04-5.56 80.04-24.33Q80.04-26.13 82.93-26.13L82.93-26.13Q85.78-26.13 85.78-24.33L85.78-24.33 85.78-3.19Q85.78-2.36 84.9-1.49 84.03-0.61 82.14-0.61ZM95.36 2.49L95.36 2.49Q94.14 2.49 93.09 1.36L93.09 1.36Q92.78 1.01 92.78 0.57L92.78 0.57Q92.78-0.18 93.83-1.09L93.83-1.09Q99.34-6.3 100.48-15.8L100.48-15.8 94.92-15.8Q92.21-15.8 92.21-17.46L92.21-17.46Q92.21-19.12 94.92-19.12L94.92-19.12 100.7-19.12 100.7-27.48 99.61-27.48Q98.91-25.6 97.64-23.15L97.64-23.15Q96.72-21.75 95.1-21.75L95.1-21.75Q94.18-21.75 93.17-22.49 92.17-23.24 92.17-23.5L92.17-23.5Q92.17-23.76 92.47-24.29L92.47-24.29Q94.75-28.18 96.24-34.31L96.24-34.31Q96.63-36.19 98.47-36.19L98.47-36.19Q98.91-36.19 99.39-36.11L99.39-36.11Q101.79-35.62 101.79-34.49L101.79-34.49Q101.79-34.14 100.83-30.77L100.83-30.77 110.11-30.77Q112.78-30.77 112.78-29.15L112.78-29.15Q112.78-27.48 110.11-27.48L110.11-27.48 106.35-27.48 106.35-19.12 111.29-19.12Q114-19.12 114-17.46L114-17.46Q114-15.8 111.29-15.8L111.29-15.8 106.13-15.8Q106.04-15.49 105.95-14.88L105.95-14.88Q105.82-13.83 105.6-12.74L105.6-12.74Q107.57-10.72 110.59-7.31L110.59-7.31Q112.95-4.6 113.3-4.2 113.65-3.81 113.65-3.59L113.65-3.59 113.04-2.84Q111.9-1.4 110.5-1.4L110.5-1.4Q109.19-1.4 108.27-2.71L108.27-2.71Q106.13-5.73 104.29-7.88L104.29-7.88Q102.71-2.89 98.12 1.31L98.12 1.31Q96.63 2.49 95.36 2.49ZM127.48-1.36L127.48-1.36 117.33-1.36Q115.45-1.36 114.57-2.23 113.7-3.11 113.7-3.94L113.7-3.94 113.7-30.11Q113.7-30.94 114.57-31.82 115.45-32.69 117.33-32.69L117.33-32.69 127.48-32.69Q129.37-32.69 130.24-31.82 131.12-30.94 131.12-30.11L131.12-30.11 131.12-3.94Q131.12-3.11 130.24-2.23 129.37-1.36 127.48-1.36ZM119.43-4.64L125.21-4.64Q125.47-4.64 125.47-5.95L125.47-5.95 125.47-28.05Q125.47-29.37 125.21-29.37L125.21-29.37 119.43-29.37Q119.17-29.37 119.17-28.05L119.17-28.05 119.17-5.95Q119.17-4.64 119.43-4.64L119.43-4.64ZM141.36 2.89L141.36 2.89Q139.47 2.89 138.6 1.58L138.6 1.58Q138.42 1.27 138.42 1.01L138.42 1.01Q138.42 0.09 141.05-0.48L141.05-0.48Q145.03-1.4 148.62-3.19L148.62-3.19Q145.6-5.56 144.03-7.7L144.03-7.7Q143.81-8.01 143.81-8.27L143.81-8.27Q143.81-8.84 145.03-9.32L145.03-9.32Q145.95-9.67 146.74-9.67L146.74-9.67Q148.14-9.67 149.1-8.45L149.1-8.45Q150.77-6.43 151.9-5.69L151.9-5.69Q153.39-7 154.49-10.72L154.49-10.72 145.47-10.72Q143.59-10.72 142.71-11.6 141.84-12.47 141.84-13.3L141.84-13.3 141.84-24.86Q141.84-25.69 142.71-26.56 143.59-27.44 145.47-27.44L145.47-27.44 154.97-27.44 154.97-31.12 140.66-31.12Q138.03-31.12 138.03-32.69L138.03-32.69Q138.03-34.27 140.66-34.27L140.66-34.27 174.49-34.27Q177.11-34.27 177.11-32.69L177.11-32.69Q177.11-31.12 174.49-31.12L174.49-31.12 160.74-31.12 160.74-27.44 170.72-27.44Q172.6-27.44 173.48-26.56 174.35-25.69 174.35-24.86L174.35-24.86 174.35-13.3Q174.35-12.47 173.48-11.6 172.6-10.72 170.72-10.72L170.72-10.72 160.26-10.72Q159.47-6.91 155.97-3.37L155.97-3.37Q162.1-0.96 174.14-0.61L174.14-0.61Q177.77-0.53 177.77 0.74L177.77 0.74Q177.77 0.92 177.68 1.18L177.68 1.18Q176.98 2.84 174.09 2.84L174.09 2.84 173.65 2.84Q158.95 2.23 152.56-0.92L152.56-0.92Q149.32 1.14 142.93 2.71L142.93 2.71Q142.06 2.89 141.36 2.89ZM147.53-13.52L154.84-13.52Q154.97-14.4 154.97-17.77L154.97-17.77 147.26-17.77 147.26-14.84Q147.26-13.52 147.53-13.52L147.53-13.52ZM160.61-13.52L168.53-13.52Q168.8-13.52 168.8-14.84L168.8-14.84 168.8-17.77 160.74-17.77Q160.74-14.57 160.61-13.52L160.61-13.52ZM147.26-20.39L154.97-20.39 154.97-24.64 147.53-24.64Q147.26-24.64 147.26-23.33L147.26-23.33 147.26-20.39ZM160.74-20.39L168.8-20.39 168.8-23.33Q168.8-24.64 168.53-24.64L168.53-24.64 160.74-24.64 160.74-20.39Z" transform="translate(-2.009999990463257, 36.459999084472656)"></path></g> <!----> <!----> <!----> <!----> <!----> <!----> <!----></g></g> <g data-gra="path-slogan" fill-rule="" class="tp-slogan iconsvg-slogansvg" fill="#0a0619" transform="translate(5,45.349998474121094)"><rect x="0" height="1" y="3.9750003814697266" width="18.335006713867188"></rect> <rect height="1" y="3.9750003814697266" width="18.335006713867188" x="147.4250030517578"></rect> <g transform="translate(21.335006713867188,0)"><g transform="scale(1)"><path d="M3.09-7.59L0.19-7.59L0.19-8.58L7.13-8.58L7.13-7.59L4.22-7.59L4.22 0L3.09 0L3.09-7.59ZM13.83 0L12.98-2.48L9.52-2.48L8.63 0L7.45 0L10.69-8.58L12-8.58L15.09 0L13.83 0ZM11.25-7.31L9.89-3.52L12.56-3.52L11.30-7.31L11.25-7.31ZM17.53-8.58L21.84-1.64L21.84-8.58L22.97-8.58L22.97 0L21.66 0L17.30-6.94L17.25-6.94L17.25 0L16.13 0L16.13-8.58L17.53-8.58ZM31.17-3.61L28.55-3.61L28.55-4.59L32.30-4.59L32.30 0L31.55 0L31.27-1.08Q30.28 0.09 28.45 0.14L28.45 0.14Q26.72 0.14 25.78-0.75L25.78-0.75Q24.38-2.06 24.42-4.36L24.42-4.36Q24.75-8.63 28.50-8.81L28.50-8.81Q31.69-8.63 32.16-6L32.16-6L31.03-6Q30.56-7.78 28.45-7.83L28.45-7.83Q25.78-7.64 25.64-4.31L25.64-4.31Q25.64-0.75 28.50-0.75L28.50-0.75Q29.53-0.75 30.28-1.31L30.28-1.31Q31.22-2.06 31.17-3.61L31.17-3.61ZM40.36-6.09L40.36-6.09L39.28-6.09Q39.19-7.73 37.13-7.83L37.13-7.83Q35.20-7.78 35.20-6.33L35.20-6.33Q35.20-5.39 36.23-5.25L36.23-5.25L38.67-4.69Q40.59-4.22 40.59-2.34L40.59-2.34Q40.55 0.05 37.22 0.14L37.22 0.14Q35.39 0.14 34.64-0.61L34.64-0.61Q33.70-1.31 33.75-2.77L33.75-2.77L34.88-2.77Q34.92-0.80 37.22-0.75L37.22-0.75Q39.47-0.80 39.52-2.20L39.52-2.20Q39.70-3.38 37.64-3.75L37.64-3.75L35.86-4.13Q34.03-4.64 34.03-6.19L34.03-6.19Q34.17-8.72 37.03-8.81L37.03-8.81Q40.27-8.81 40.36-6.09ZM43.22-5.06L47.72-5.06L47.72-8.58L48.89-8.58L48.89 0L47.72 0L47.72-3.98L43.22-3.98L43.22 0L42.05 0L42.05-8.58L43.22-8.58L43.22-5.06ZM56.34 0L55.50-2.48L52.03-2.48L51.14 0L49.97 0L53.20-8.58L54.52-8.58L57.61 0L56.34 0ZM53.77-7.31L52.41-3.52L55.08-3.52L53.81-7.31L53.77-7.31ZM60.05-8.58L64.36-1.64L64.36-8.58L65.48-8.58L65.48 0L64.17 0L59.81-6.94L59.77-6.94L59.77 0L58.64 0L58.64-8.58L60.05-8.58ZM71.44-1.03L76.73-1.03L76.73 0L69.98 0L69.98-0.94L75.23-7.59L70.36-7.59L70.36-8.58L76.73-8.58L76.73-7.59L71.44-1.03ZM79.03-5.06L83.53-5.06L83.53-8.58L84.70-8.58L84.70 0L83.53 0L83.53-3.98L79.03-3.98L79.03 0L77.86 0L77.86-8.58L79.03-8.58L79.03-5.06ZM86.67-8.58L87.84-8.58L87.84 0L86.67 0L86.67-8.58ZM96.23-3.61L93.61-3.61L93.61-4.59L97.36-4.59L97.36 0L96.61 0L96.33-1.08Q95.34 0.09 93.52 0.14L93.52 0.14Q91.78 0.14 90.84-0.75L90.84-0.75Q89.44-2.06 89.48-4.36L89.48-4.36Q89.81-8.63 93.56-8.81L93.56-8.81Q96.75-8.63 97.22-6L97.22-6L96.09-6Q95.63-7.78 93.52-7.83L93.52-7.83Q90.84-7.64 90.70-4.31L90.70-4.31Q90.70-0.75 93.56-0.75L93.56-0.75Q94.59-0.75 95.34-1.31L95.34-1.31Q96.28-2.06 96.23-3.61L96.23-3.61ZM100.45-1.03L105.61-1.03L105.61 0L99.28 0L99.28-8.58L105.52-8.58L105.52-7.59L100.45-7.59L100.45-4.92L105.14-4.92L105.14-3.89L100.45-3.89L100.45-1.03ZM108.52-8.58L112.83-1.64L112.83-8.58L113.95-8.58L113.95 0L112.64 0L108.28-6.94L108.23-6.94L108.23 0L107.11 0L107.11-8.58L108.52-8.58ZM122.16-3.61L119.53-3.61L119.53-4.59L123.28-4.59L123.28 0L122.53 0L122.25-1.08Q121.27 0.09 119.44 0.14L119.44 0.14Q117.70 0.14 116.77-0.75L116.77-0.75Q115.36-2.06 115.41-4.36L115.41-4.36Q115.73-8.63 119.48-8.81L119.48-8.81Q122.67-8.63 123.14-6L123.14-6L122.02-6Q121.55-7.78 119.44-7.83L119.44-7.83Q116.77-7.64 116.63-4.31L116.63-4.31Q116.63-0.75 119.48-0.75L119.48-0.75Q120.52-0.75 121.27-1.31L121.27-1.31Q122.20-2.06 122.16-3.61L122.16-3.61Z" transform="translate(-0.1875, 8.8125)"></path></g></g></g></g></g><defs v-gra="od"><linearGradient x1="0" y1="1" x2="0" y2="0" id="042a571b-692d-467b-b902-81190735d0b6"><stop offset="0%" stop-color="#09f524"></stop><stop offset="50%" stop-color="#2ec0c6"></stop><stop offset="100%" stop-color="#06fff7"></stop></linearGradient><filter id="42443b3f1de60f6b6fd3b6a9844b4764" filterUnits="objectBoundingBox"><feColorMatrix type="matrix" values="0 0 0 0 0.99609375  0 0 0 0 0.99609375  0 0 0 0 0.99609375  0 0 0 1 0"></feColorMatrix></filter></defs><defs v-gra="id"><filter id="909d2589-c58a-46ea-a1e3-4b8eaaded0cc" filterUnits="userSpaceOnUse"><feColorMatrix type="matrix" values="0 0 0 0 0.99609375  0 0 0 0 0.99609375  0 0 0 0 0.99609375  0 0 0 1 0"></feColorMatrix></filter><linearGradient x1="0" y1="1" x2="0" y2="0" id="SNI_BwnN4zpLJ1C-JcCMu"><stop offset="0%" stop-color="#09f524"></stop><stop offset="50%" stop-color="#2ec0c6"></stop><stop offset="100%" stop-color="#06fff7"></stop></linearGradient><filter id="42443b3f1de60f6b6fd3b6a9844b4764" filterUnits="objectBoundingBox"><feColorMatrix type="matrix" values="0 0 0 0 0.99609375  0 0 0 0 0.99609375  0 0 0 0 0.99609375  0 0 0 1 0"></feColorMatrix></filter></defs><mask v-gra="im" id="517ed86e-92ce-4a45-b784-f124e50e0a5c"><g class="iconsvg-imagesvg" filter="url(#909d2589-c58a-46ea-a1e3-4b8eaaded0cc)"><g><rect fill="#09f524" fill-opacity="0" stroke-width="2" x="0" y="0" width="60" height="55.307185325160155" class="image-rect"></rect> <svg x="0" y="0" width="60" height="55.307185325160155" filtersec="colorsf3199311244" class="image-svg-svg primary" style="overflow: visible;"><svg xmlns="http://www.w3.org/2000/svg" xmlns:xlink="http://www.w3.org/1999/xlink" version="1.1" x="0px" y="0px" viewBox="1.399999976158142 5.899999618530273 107.4000015258789 99" xml:space="preserve"><path d="M96.1,20.4c-0.6-7.2-6-13.1-13-14.3c-0.8-0.1-1.7-0.2-2.6-0.2S78.7,6,77.9,6.1c-2.1,0.4-4,1.1-5.7,2.2s-3.1,2.4-4.3,4  l-0.1,0.1C67.7,12.5,46.5,42,31.7,62.6l-17-29.5L5.6,66L23,74.6c-0.2,0.3-0.4,0.6-0.6,0.9L3.3,71.7L1.4,82.1l34.5-0.2l0,0h14.8  c9.7-8.9,35.2-32.2,45.4-41v-8.1l12.7-8.9C99.2,24.1,96.1,20.4,96.1,20.4z M82.7,25.2c-2.8,0-5.1-2.3-5.1-5.1s2.3-5.1,5.1-5.1  c2.8,0,5.1,2.3,5.1,5.1S85.5,25.2,82.7,25.2z M97.1,44.9v0.2v0.1C97,63.5,83.8,78.7,66.5,81.8l-3.1,23.1h-4.8l-3.1-22.4l0,0  C65.1,73.6,86.9,53.7,97.1,44.9z"></path></svg></svg> <defs><filter id="colors5354994280"><feColorMatrix type="matrix" values="0 0 0 0 0.03515625  0 0 0 0 0.95703125  0 0 0 0 0.140625  0 0 0 1 0" class="icon-fecolormatrix"></feColorMatrix></filter> <filter id="colorsf3199311244"><feColorMatrix type="matrix" values="0 0 0 0 0.99609375  0 0 0 0 0.99609375  0 0 0 0 0.99609375  0 0 0 1 0" class="icon-fecolormatrix"></feColorMatrix></filter> <filter id="colorsb6288474165"><feColorMatrix type="matrix" values="0 0 0 0 0  0 0 0 0 0  0 0 0 0 0  0 0 0 1 0" class="icon-fecolormatrix"></feColorMatrix></filter></defs></g></g></mask></svg>